<svg version="1.1" id="Layer_1" xmlns="http://www.w3.org/2000/svg" xmlns:xlink="http://www.w3.org/1999/xlink" x="0px" y="0px"
	 width="100%" viewBox="0 0 66 66" enable-background="new 0 0 66 66" xml:space="preserve">
<path fill="#000000" opacity="1.000000" stroke="none" 
	d="
M34.000000,67.000000 
	C22.687220,67.000000 11.874441,67.000000 1.030831,67.000000 
	C1.030831,45.062328 1.030831,23.124605 1.030831,1.093441 
	C22.895611,1.093441 44.791756,1.093441 66.843948,1.093441 
	C66.843948,22.999132 66.843948,44.999451 66.843948,67.000000 
	C56.125515,67.000000 45.312756,67.000000 34.000000,67.000000 
M43.928448,5.451537 
	C43.616444,5.356919 43.304443,5.262302 42.232220,4.764944 
	C31.172724,4.526657 20.108280,4.019283 9.056898,4.222417 
	C5.947608,4.279569 3.729553,6.738487 3.910609,10.777689 
	C4.230613,17.916714 3.999634,25.080425 3.999830,32.233803 
	C4.000046,40.124706 4.000319,40.124706 11.860435,41.547081 
	C11.961888,42.678143 12.064744,43.824833 12.025193,45.743660 
	C12.273170,49.638798 13.871391,48.018909 15.763569,46.820999 
	C19.310589,44.575432 21.769094,40.074150 27.000595,42.073997 
	C27.000677,45.039604 27.163488,48.016281 26.962761,50.968231 
	C26.660458,55.413994 28.510891,57.149384 32.987835,57.067234 
	C40.354202,56.932072 48.120789,55.609734 54.248734,62.790527 
	C55.017506,63.191196 55.786278,63.591869 57.101578,64.277374 
	C57.101578,61.527576 57.101578,59.432064 57.101578,57.385651 
	C63.618736,56.631344 63.993073,56.217976 63.997013,50.055866 
	C64.001160,43.568264 64.115623,37.077003 63.913795,30.595688 
	C63.865101,29.032068 62.759583,27.501360 61.938885,25.444098 
	C61.621941,25.349785 61.304996,25.255474 60.068638,25.018873 
	C55.433712,25.013632 50.798782,25.008390 46.022274,24.075872 
	C46.015217,19.414888 46.150364,14.746705 45.915012,10.097276 
	C45.843811,8.690690 44.746429,7.336049 43.928448,5.451537 
z"/>
<path fill="#F9B938" opacity="1.000000" stroke="none" 
	d="
M12.167599,44.971527 
	C12.064744,43.824833 11.961888,42.678143 11.860435,41.547081 
	C4.000319,40.124706 4.000046,40.124706 3.999830,32.233803 
	C3.999634,25.080425 4.230613,17.916714 3.910609,10.777689 
	C3.729553,6.738487 5.947608,4.279569 9.056898,4.222417 
	C20.108280,4.019283 31.172724,4.526657 42.615662,5.174875 
	C42.999107,5.584806 43.003262,6.002285 43.004963,6.470779 
	C43.009003,13.017244 42.862877,19.101282 43.110752,25.169222 
	C43.178677,26.831970 44.427284,28.446487 45.100681,30.492493 
	C45.000847,32.266872 44.934418,33.631897 44.524185,35.063103 
	C40.529495,38.830933 35.992554,39.617752 31.093197,38.974232 
	C23.827787,38.019939 17.470661,39.798943 12.167599,44.971527 
M19.085815,9.931461 
	C17.756065,9.943012 16.405985,10.109582 15.100208,9.938335 
	C10.337295,9.313703 8.545146,11.185948 8.912694,16.062223 
	C9.336385,21.683355 9.109761,27.353502 9.316843,33.724709 
	C10.417477,34.385918 11.506305,35.596134 12.620639,35.620094 
	C20.422092,35.787842 28.238672,35.910110 36.024666,35.525555 
	C37.407784,35.457245 39.706188,33.028313 39.808708,31.565187 
	C40.237152,25.450491 40.079361,19.285816 39.900669,13.146323 
	C39.871204,12.133980 38.663956,11.155916 37.212711,10.015863 
	C36.147423,9.946573 35.082138,9.877283 33.926609,9.057657 
	C30.724916,5.872302 27.610634,6.135423 24.332199,9.923615 
	C23.893538,9.887207 23.454874,9.850799 22.974100,9.200451 
	C22.514536,8.650555 22.054972,8.100658 21.595409,7.550762 
	C21.058800,8.305335 20.522190,9.059907 19.085815,9.931461 
z"/>
<path fill="#A2A2F9" opacity="1.000000" stroke="none" 
	d="
M46.163857,25.003147 
	C50.798782,25.008390 55.433712,25.013632 60.535370,25.303867 
	C61.002102,25.588861 61.021790,26.016443 61.052170,26.434845 
	C61.320415,33.754921 61.841911,40.664982 61.638248,47.553600 
	C61.569420,49.881714 60.073864,53.759861 58.522144,54.156075 
	C53.693027,55.389122 53.833755,58.528229 53.947617,62.086273 
	C48.120789,55.609734 40.354202,56.932072 32.987835,57.067234 
	C28.510891,57.149384 26.660458,55.413994 26.962761,50.968231 
	C27.163488,48.016281 27.000677,45.039604 27.409706,41.554291 
	C29.198563,41.078781 30.578306,41.122974 31.985493,41.388290 
	C32.012936,41.609417 32.109467,42.044415 32.060471,42.480591 
	C32.049648,45.260475 32.087818,47.604191 32.159691,50.330551 
	C32.759029,51.270508 33.331429,52.318859 33.889282,52.311176 
	C41.775810,52.202526 49.663067,52.004425 57.539307,51.611004 
	C58.060951,51.584949 58.879303,49.817902 58.905704,48.842934 
	C59.044949,43.700172 59.061119,38.548855 58.891159,33.408073 
	C58.862732,32.548309 57.710373,31.725704 56.775703,30.603691 
	C53.336449,30.268658 50.198849,30.215860 46.785984,30.095276 
	C46.328232,29.978317 46.145744,29.929146 45.978317,29.472908 
	C46.050201,27.711611 46.107029,26.357378 46.163857,25.003147 
z"/>
<path fill="#7C7CF7" opacity="1.000000" stroke="none" 
	d="
M54.098175,62.438400 
	C53.833755,58.528229 53.693027,55.389122 58.522144,54.156075 
	C60.073864,53.759861 61.569420,49.881714 61.638248,47.553600 
	C61.841911,40.664982 61.320415,33.754921 61.331326,26.422520 
	C61.766758,25.979700 61.953411,25.967607 62.140068,25.955515 
	C62.759583,27.501360 63.865101,29.032068 63.913795,30.595688 
	C64.115623,37.077003 64.001160,43.568264 63.997013,50.055866 
	C63.993073,56.217976 63.618736,56.631344 57.101578,57.385651 
	C57.101578,59.432064 57.101578,61.527576 57.101578,64.277374 
	C55.786278,63.591869 55.017506,63.191196 54.098175,62.438400 
z"/>
<path fill="#EDB123" opacity="1.000000" stroke="none" 
	d="
M31.958052,41.167168 
	C30.578306,41.122974 29.198563,41.078781 27.409027,41.100182 
	C21.769094,40.074150 19.310589,44.575432 15.763569,46.820999 
	C13.871391,48.018909 12.273170,49.638798 12.096396,45.357594 
	C17.470661,39.798943 23.827787,38.019939 31.093197,38.974232 
	C35.992554,39.617752 40.529495,38.830933 44.575615,35.445526 
	C43.112099,37.498783 41.518776,39.866051 39.318703,40.792572 
	C37.190083,41.689003 34.436901,41.102383 31.958052,41.167168 
z"/>
<path fill="#EDB123" opacity="1.000000" stroke="none" 
	d="
M46.093063,24.539509 
	C46.107029,26.357378 46.050201,27.711611 45.770737,29.523558 
	C45.548103,29.981274 45.134083,30.083139 45.134083,30.083139 
	C44.427284,28.446487 43.178677,26.831970 43.110752,25.169222 
	C42.862877,19.101282 43.009003,13.017244 43.284027,6.464496 
	C43.747292,5.979016 43.933189,5.968316 44.119087,5.957615 
	C44.746429,7.336049 45.843811,8.690690 45.915012,10.097276 
	C46.150364,14.746705 46.015217,19.414888 46.093063,24.539509 
z"/>
<path fill="#8E8EF8" opacity="1.000000" stroke="none" 
	d="
M62.039474,25.699806 
	C61.953411,25.967607 61.766758,25.979700 61.300945,26.004118 
	C61.021790,26.016443 61.002102,25.588861 60.995079,25.375011 
	C61.304996,25.255474 61.621941,25.349785 62.039474,25.699806 
z"/>
<path fill="#F2B42C" opacity="1.000000" stroke="none" 
	d="
M44.023766,5.704576 
	C43.933189,5.968316 43.747292,5.979016 43.282326,5.996001 
	C43.003262,6.002285 42.999107,5.584806 42.995773,5.376245 
	C43.304443,5.262302 43.616444,5.356919 44.023766,5.704576 
z"/>
<path fill="#FFFFFF" opacity="1.000000" stroke="none" 
	d="
M9.165548,33.002365 
	C9.109761,27.353502 9.336385,21.683355 8.912694,16.062223 
	C8.545146,11.185948 10.337295,9.313703 15.100208,9.938335 
	C16.405985,10.109582 17.756065,9.943012 19.911339,9.943741 
	C21.496645,9.908811 22.256428,9.861601 23.016212,9.814390 
	C23.454874,9.850799 23.893538,9.887207 25.105934,9.939335 
	C28.592062,9.906034 31.304457,9.857014 34.016850,9.807993 
	C35.082138,9.877283 36.147423,9.946573 37.606510,10.546650 
	C37.998554,16.714754 37.892647,22.354660 38.032658,27.988455 
	C38.121994,31.583235 36.674328,33.093616 33.040619,33.036469 
	C25.084051,32.911331 17.124111,33.000637 9.165548,33.002365 
M20.808378,24.486504 
	C20.631517,24.283882 20.431225,24.107933 19.424347,23.160910 
	C17.273163,25.524527 19.429506,25.656252 21.306528,26.773102 
	C22.792694,27.003933 24.278860,27.234762 25.765026,27.465593 
	C25.884960,27.006437 26.004894,26.547283 26.124828,26.088127 
	C24.398331,25.784142 22.671833,25.480158 21.016792,24.995955 
	C21.016792,24.995955 21.051464,24.805210 20.808378,24.486504 
M25.663506,15.258321 
	C23.761734,15.835577 21.859962,16.412832 19.196651,17.262869 
	C18.788551,19.397591 18.380451,21.532314 17.972351,23.667036 
	C18.598949,23.715054 19.225548,23.763069 19.852146,23.811087 
	C19.852146,21.500391 19.852146,19.189695 20.715647,16.987064 
	C22.136732,16.919783 23.557819,16.852501 25.513330,16.927483 
	C25.625229,16.613628 25.737129,16.299776 25.663506,15.258321 
M28.311117,19.676252 
	C28.498159,20.636580 28.685202,21.596907 28.872242,22.557234 
	C29.422764,22.398245 29.973286,22.239258 30.523808,22.080269 
	C29.956125,21.368231 29.388441,20.656193 28.311117,19.676252 
z"/>
<path fill="#E6E5FF" opacity="1.000000" stroke="none" 
	d="
M9.241196,33.363537 
	C17.124111,33.000637 25.084051,32.911331 33.040619,33.036469 
	C36.674328,33.093616 38.121994,31.583235 38.032658,27.988455 
	C37.892647,22.354660 37.998554,16.714754 38.000664,10.619724 
	C38.663956,11.155916 39.871204,12.133980 39.900669,13.146323 
	C40.079361,19.285816 40.237152,25.450491 39.808708,31.565187 
	C39.706188,33.028313 37.407784,35.457245 36.024666,35.525555 
	C28.238672,35.910110 20.422092,35.787842 12.620639,35.620094 
	C11.506305,35.596134 10.417477,34.385918 9.241196,33.363537 
z"/>
<path fill="#E5E4FE" opacity="1.000000" stroke="none" 
	d="
M45.100681,30.492493 
	C45.134083,30.083139 45.548103,29.981274 45.755684,29.930622 
	C46.145744,29.929146 46.328232,29.978317 46.770420,30.488396 
	C47.363136,32.977577 47.696144,35.005852 47.914997,37.614555 
	C48.549294,38.112957 49.297741,38.030937 50.063553,37.993031 
	C50.080917,38.037144 49.995495,38.078297 49.998497,37.998009 
	C50.001503,37.917717 49.792801,37.788795 49.326366,37.639961 
	C48.187298,38.473969 47.514664,39.456802 46.698509,40.455299 
	C46.305527,40.620956 46.132568,40.843723 46.035416,41.104996 
	C46.034718,41.070732 46.099758,41.092426 45.682076,41.133621 
	C40.879414,41.464684 36.494442,41.754547 32.109467,42.044415 
	C32.109467,42.044415 32.012936,41.609417 31.985493,41.388294 
	C34.436901,41.102383 37.190083,41.689003 39.318703,40.792572 
	C41.518776,39.866051 43.112099,37.498783 44.919418,35.379349 
	C44.934418,33.631897 45.000847,32.266872 45.100681,30.492493 
z"/>
<path fill="#F9BE46" opacity="1.000000" stroke="none" 
	d="
M33.971729,9.432825 
	C31.304457,9.857014 28.592062,9.906034 25.432571,9.884068 
	C27.610634,6.135423 30.724916,5.872302 33.971729,9.432825 
z"/>
<path fill="#F9BE46" opacity="1.000000" stroke="none" 
	d="
M22.995155,9.507421 
	C22.256428,9.861601 21.496645,9.908811 20.361221,9.885250 
	C20.522190,9.059907 21.058800,8.305335 21.595409,7.550762 
	C22.054972,8.100658 22.514536,8.650555 22.995155,9.507421 
z"/>
<path fill="#FFFEFF" opacity="1.000000" stroke="none" 
	d="
M48.029152,37.034130 
	C47.696144,35.005852 47.363136,32.977577 47.045689,30.556181 
	C50.198849,30.215860 53.336449,30.268658 56.753685,31.080709 
	C57.021130,35.961182 56.822002,40.092724 57.048820,44.200741 
	C57.280029,48.388264 55.825401,50.247849 51.410416,50.065338 
	C44.991627,49.799992 38.555008,49.965893 32.125992,49.947899 
	C32.087818,47.604191 32.049648,45.260475 32.060471,42.480591 
	C36.494442,41.754547 40.879414,41.464684 45.630238,41.524467 
	C45.683144,42.730690 45.370201,43.587265 44.984154,44.643936 
	C47.738052,44.643936 50.202297,44.643936 53.295177,44.643936 
	C52.450016,43.228397 51.773567,42.095421 51.077667,40.614075 
	C50.703976,39.536568 50.349735,38.807434 49.995495,38.078297 
	C49.995495,38.078297 50.080917,38.037144 49.972034,37.685322 
	C49.251820,37.233711 48.640488,37.133923 48.029152,37.034130 
z"/>
<path fill="#E5E5FF" opacity="1.000000" stroke="none" 
	d="
M32.159691,50.330551 
	C38.555008,49.965893 44.991627,49.799992 51.410416,50.065338 
	C55.825401,50.247849 57.280029,48.388264 57.048820,44.200741 
	C56.822002,40.092724 57.021130,35.961182 57.055344,31.362946 
	C57.710373,31.725704 58.862732,32.548309 58.891159,33.408073 
	C59.061119,38.548855 59.044949,43.700172 58.905704,48.842934 
	C58.879303,49.817902 58.060951,51.584949 57.539307,51.611004 
	C49.663067,52.004425 41.775810,52.202526 33.889282,52.311176 
	C33.331429,52.318859 32.759029,51.270508 32.159691,50.330551 
z"/>
<path fill="#484747" opacity="1.000000" stroke="none" 
	d="
M20.945335,25.176172 
	C22.671833,25.480158 24.398331,25.784142 26.124828,26.088127 
	C26.004894,26.547283 25.884960,27.006437 25.765026,27.465593 
	C24.278860,27.234762 22.792694,27.003933 21.134651,26.209251 
	C20.962772,25.645401 20.945335,25.176172 20.945335,25.176172 
z"/>
<path fill="#FDFDFD" opacity="1.000000" stroke="none" 
	d="
M28.565937,19.810204 
	C29.388441,20.656193 29.956125,21.368231 30.523808,22.080269 
	C29.973286,22.239258 29.422764,22.398245 28.872242,22.557234 
	C28.685202,21.596907 28.498159,20.636580 28.565937,19.810204 
z"/>
<path fill="#4D4C4C" opacity="1.000000" stroke="none" 
	d="
M19.852146,16.879000 
	C19.852146,19.189695 19.852146,21.500391 19.852146,23.811087 
	C19.225548,23.763069 18.598949,23.715054 17.972351,23.667036 
	C18.380451,21.532314 18.788551,19.397591 19.554111,17.098028 
	C19.911573,16.933187 19.852146,16.879000 19.852146,16.879000 
z"/>
<path fill="#4D4C4C" opacity="1.000000" stroke="none" 
	d="
M24.978905,16.785219 
	C23.557819,16.852501 22.136732,16.919783 20.283897,16.933033 
	C19.852146,16.879000 19.911573,16.933187 19.934881,16.961639 
	C21.859962,16.412832 23.761734,15.835577 25.588947,15.730511 
	C25.289200,16.353951 25.110706,16.548122 24.978905,16.785219 
z"/>
<path fill="#4D4C4C" opacity="1.000000" stroke="none" 
	d="
M20.981064,25.086063 
	C20.945335,25.176172 20.962772,25.645401 20.958843,25.880146 
	C19.429506,25.656252 17.273163,25.524527 19.781464,23.825104 
	C20.442877,24.594604 20.747169,24.699907 21.051464,24.805210 
	C21.051464,24.805210 21.016792,24.995955 20.981064,25.086063 
z"/>
<path fill="#FDFDFD" opacity="1.000000" stroke="none" 
	d="
M20.929920,24.645857 
	C20.747169,24.699907 20.442877,24.594604 20.173042,24.223978 
	C20.431225,24.107933 20.631517,24.283882 20.929920,24.645857 
z"/>
<path fill="#6A6969" opacity="1.000000" stroke="none" 
	d="
M25.246117,16.856350 
	C25.110706,16.548122 25.289200,16.353951 25.681707,16.094311 
	C25.737129,16.299776 25.625229,16.613628 25.246117,16.856350 
z"/>
<path fill="#4A4A4A" opacity="1.000000" stroke="none" 
	d="
M51.097115,40.962444 
	C51.773567,42.095421 52.450016,43.228397 53.295177,44.643936 
	C50.202297,44.643936 47.738052,44.643936 44.984154,44.643936 
	C45.370201,43.587265 45.683144,42.730690 46.047920,41.483269 
	C46.099758,41.092426 46.034718,41.070732 46.289822,40.990444 
	C46.643963,40.753315 46.742996,40.596478 46.842026,40.439640 
	C47.514664,39.456802 48.187298,38.473969 49.263397,38.259083 
	C50.143616,39.672173 50.620365,40.317307 51.097115,40.962444 
z"/>
<path fill="#5C5B5B" opacity="1.000000" stroke="none" 
	d="
M51.077667,40.614075 
	C50.620365,40.317307 50.143616,39.672173 49.729836,38.407913 
	C49.792801,37.788795 50.001503,37.917717 49.998497,37.998009 
	C50.349735,38.807434 50.703976,39.536568 51.077667,40.614075 
z"/>
<path fill="#5C5B5B" opacity="1.000000" stroke="none" 
	d="
M47.915001,37.614555 
	C48.640488,37.133923 49.251820,37.233711 49.954674,37.641209 
	C49.297741,38.030937 48.549294,38.112957 47.915001,37.614555 
z"/>
<path fill="#FFFEFF" opacity="1.000000" stroke="none" 
	d="
M46.698509,40.455299 
	C46.742996,40.596478 46.643963,40.753315 46.290520,41.024704 
	C46.132568,40.843723 46.305527,40.620956 46.698509,40.455299 
z"/>
</svg>